<?xml version="1.0" encoding="iso-8859-1"?>
<!-- Generator: Adobe Illustrator 19.0.0, SVG Export Plug-In . SVG Version: 6.00 Build 0)  -->
<svg xmlns="http://www.w3.org/2000/svg" xmlns:xlink="http://www.w3.org/1999/xlink" version="1.1" id="Capa_1" x="0px" y="0px" viewBox="0 0 512 512" style="enable-background:new 0 0 512 512;" xml:space="preserve" width="512px" height="512px">
<g>
	<g>
		<path d="M512,244c0-38.132-18.881-73.263-50-94.354v-13.324C462,61.154,400.846,0,325.678,0c-32.732,0-64.381,11.776-89.115,33.16    C220.2,47.306,207.538,65.041,199.47,84.751C187.068,78.414,173.217,75,159,75c-49.075,0-89,39.925-89,89v18.188    C29.978,191.163,0,226.68,0,269c0,39.323,24.736,72.965,60.459,84.627c-13.722,3.607-26.349,10.856-36.727,21.275    C8.428,390.27,0,410.518,0,431.917c0,21.381,8.098,41.436,22.802,56.469C37.696,503.614,57.729,512,79.212,512H350.89    c0.491,0,0.978-0.018,1.461-0.053c11.237-0.348,22.233-2.521,32.7-6.464c10.336-3.894,15.56-15.43,11.666-25.767    c-3.894-10.336-15.429-15.56-25.767-11.666c-6.534,2.461-13.421,3.784-20.473,3.932c-0.173,0.003-0.347,0.01-0.519,0.018H79.212    C57.224,472,40,454.394,40,431.917C40,409.738,58.693,391,80.819,391c10.989,0,19.919-8.866,20-19.854    c0.001-0.186,0.135-18.717,0.135-30.146c0-22.102,17.981-40.083,40.083-40.083c11.8,0,22.475,4.73,30.055,13.318    c5.133,5.815,13.166,8.138,20.612,5.959c7.445-2.179,12.958-8.467,14.146-16.133c6.092-39.316,40.623-68.964,80.323-68.964    c45.12,0,81.827,36.466,81.827,81.289v21.418c0,7.401,4.087,14.197,10.624,17.666c19.97,10.6,32.376,31.551,32.376,54.678    c0,11.046,8.954,20,20,20c11.046,0,20-8.954,20-20c0-33.715-16.206-64.691-43-83.498v-10.264    c0-66.879-54.651-121.289-121.827-121.289c-29.12,0-57.289,10.531-79.319,29.654c-13.875,12.043-24.755,26.979-31.956,43.567    c-10.461-4.821-22.002-7.401-33.862-7.401c-34.226,0-63.492,21.588-74.932,51.858C50.393,304.691,40,288.065,40,269    c0-27.019,22.361-49,49.846-49H90c11.046,0,20-8.955,20-20v-36c0-27.019,21.981-49,49-49c14.036,0,27.427,6.052,36.741,16.604    c5.134,5.816,13.168,8.138,20.612,5.959c7.445-2.179,12.958-8.467,14.146-16.132C237.692,75.007,278.61,40,325.678,40    C378.79,40,422,83.21,422,136.322v24.598c0,7.401,4.087,14.197,10.624,17.666C456.912,191.477,472,216.542,472,244    c0,0.169,0.021,0.332,0.025,0.5c-0.004,0.168-0.025,0.331-0.025,0.5c0,13.381-3.479,26.552-10.061,38.089    c-5.474,9.594-2.133,21.809,7.46,27.283c3.127,1.784,6.532,2.632,9.893,2.632c6.948,0,13.701-3.626,17.39-10.092    C506.703,285.347,512,265.321,512,245c0-0.169-0.021-0.332-0.025-0.5C511.979,244.332,512,244.169,512,244z" fill="#006DF0"/>
	</g>
</g>
<g>
</g>
<g>
</g>
<g>
</g>
<g>
</g>
<g>
</g>
<g>
</g>
<g>
</g>
<g>
</g>
<g>
</g>
<g>
</g>
<g>
</g>
<g>
</g>
<g>
</g>
<g>
</g>
<g>
</g>
</svg>
